<?xml version="1.0" encoding="UTF-8" standalone="no"?><!DOCTYPE svg PUBLIC "-//W3C//DTD SVG 1.1//EN" "http://www.w3.org/Graphics/SVG/1.1/DTD/svg11.dtd"><svg width="100%" height="100%" viewBox="0 0 14 11" version="1.1" xmlns="http://www.w3.org/2000/svg" xmlns:xlink="http://www.w3.org/1999/xlink" xml:space="preserve" style="fill-rule:evenodd;clip-rule:evenodd;stroke-linecap:round;stroke-linejoin:round;stroke-miterlimit:1.5;"><g id="Browse"><path d="M0.404,1.746l0.347,-1.496l4.57,0.018l0.636,1.478l-5.553,0Z" style="fill:none;stroke:#fff;stroke-width:0.5px;"/><g><path d="M3.776,8.508l1.321,-2.049l0.833,1.502l0.661,0l0.739,-0.877l1.533,1.508" style="fill:none;stroke:#fff;stroke-width:0.5px;"/><path d="M8.58,5.166c0.412,0 0.747,0.316 0.747,0.705c0,0.389 -0.335,0.705 -0.747,0.705c-0.412,0 -0.747,-0.316 -0.747,-0.705c0,-0.389 0.335,-0.705 0.747,-0.705Zm0,0.353c0.206,0 0.373,0.158 0.373,0.352c0,0.194 -0.167,0.352 -0.373,0.352c-0.206,0 -0.373,-0.158 -0.373,-0.352c0,-0.194 0.167,-0.352 0.373,-0.352Z" style="fill:#fff;stroke:#fff;stroke-width:0.2px;"/><rect x="3.477" y="4.237" width="6.887" height="4.548" style="fill:#fff;fill-opacity:0;stroke:#fff;stroke-width:0.5px;"/></g><rect x="0.25" y="1.746" width="13.342" height="8.426" style="fill:#fff;fill-opacity:0;stroke:#fff;stroke-width:0.5px;"/><path d="M0.25,2.849l13.342,0.054" style="fill:none;stroke:#fff;stroke-width:0.5px;"/></g></svg>