<?xml version="1.0" encoding="UTF-8" standalone="no"?><!DOCTYPE svg PUBLIC "-//W3C//DTD SVG 1.1//EN" "http://www.w3.org/Graphics/SVG/1.1/DTD/svg11.dtd"><svg width="100%" height="100%" viewBox="0 0 13 11" version="1.1" xmlns="http://www.w3.org/2000/svg" xmlns:xlink="http://www.w3.org/1999/xlink" xml:space="preserve" style="fill-rule:evenodd;clip-rule:evenodd;stroke-linejoin:round;stroke-miterlimit:1.41421;"><g id="Options"><path d="M12.653,0.682c0,-0.376 -0.306,-0.682 -0.682,-0.682l-11.289,0c-0.376,0 -0.682,0.306 -0.682,0.682l0,1.364c0,0.376 0.306,0.682 0.682,0.682l11.289,0c0.376,0 0.682,-0.306 0.682,-0.682l0,-1.364Z" style="fill:#fff;"/><path d="M12.653,4.427c0,-0.426 -0.346,-0.772 -0.772,-0.772l-11.109,0c-0.426,0 -0.772,0.346 -0.772,0.772l0,1.545c0,0.426 0.346,0.772 0.772,0.772l11.109,0c0.426,0 0.772,-0.346 0.772,-0.772l0,-1.545Z" style="fill:#fff;"/><path d="M12.653,8.476c0,-0.377 -0.306,-0.682 -0.682,-0.682l-11.289,0c-0.376,0 -0.682,0.305 -0.682,0.682l0,1.364c0,0.376 0.306,0.682 0.682,0.682l11.289,0c0.376,0 0.682,-0.306 0.682,-0.682l0,-1.364Z" style="fill:#fff;"/></g></svg>