<?xml version="1.0" encoding="UTF-8" standalone="no"?><!DOCTYPE svg PUBLIC "-//W3C//DTD SVG 1.1//EN" "http://www.w3.org/Graphics/SVG/1.1/DTD/svg11.dtd"><svg width="100%" height="100%" viewBox="0 0 12 10" version="1.1" xmlns="http://www.w3.org/2000/svg" xmlns:xlink="http://www.w3.org/1999/xlink" xml:space="preserve" style="fill-rule:evenodd;clip-rule:evenodd;stroke-linecap:round;stroke-linejoin:round;stroke-miterlimit:1.5;"><g id="Scan"><ellipse cx="5.95" cy="5.36" rx="2.061" ry="1.882" style="fill:#fff;fill-opacity:0;stroke:#fff;stroke-width:0.5px;"/><path d="M11.168,3.423c0,-1.063 -0.864,-1.926 -1.927,-1.926l-7.065,0c-1.063,0 -1.926,0.863 -1.926,1.926l0,3.853c0,1.063 0.863,1.926 1.926,1.926l7.065,0c1.063,0 1.927,-0.863 1.927,-1.926l0,-3.853Z" style="fill:#fff;fill-opacity:0;stroke:#fff;stroke-width:0.5px;"/><path d="M8.3,0.562c0,-0.172 -0.14,-0.312 -0.312,-0.312l-4.124,0c-0.173,0 -0.312,0.14 -0.312,0.312l0,0.623c0,0.172 0.139,0.312 0.312,0.312l4.124,0c0.172,0 0.312,-0.14 0.312,-0.312l0,-0.623Z" style="fill:#fff;fill-opacity:0;stroke:#fff;stroke-width:0.5px;"/></g></svg>